mtllib spaceship.mtl

v  28.7692 0.2817 -5.0598
v  11.7986 0.2817 0.9402
v  24.5266 -12.4463 -17.0598
v  24.5266 13.0096 -17.0598
v  11.7986 17.2522 -29.0598
v  11.7986 0.2817 -35.0598
v  -0.9293 13.0096 -17.0598
v  -5.1719 0.2817 -5.0598
v  -0.9293 -12.4463 -17.0598
v  11.7986 -16.6889 -29.0598

vn 0.2357 -0.7071 0.6667
vn 0.9428 0.0000 -0.3333
vn 0.2357 0.7071 0.6667
vn 0.7071 0.2357 -0.6667
vn -0.7071 0.2357 -0.6667
vn -0.0000 0.9428 0.3333
vn -0.9428 -0.0000 -0.3333
vn -0.2357 -0.7071 0.6667
vn -0.2357 0.7071 0.6667
vn -0.7071 -0.2357 -0.6667
vn 0.7071 -0.2357 -0.6667
vn 0.0000 -0.9428 0.3333
vn -0.0000 0.8165 0.5774
vn 0.0000 -0.8165 0.5774
vn 0.8165 0.0000 -0.5774
vn -0.8165 0.0000 -0.5774

vt 0.3333 0.5000 0.0000
vt 0.5000 0.0000 0.0000
vt -0.0000 0.3750 -0.3750
vt 0.0000 0.3333 0.5000
vt -0.3750 -0.0000 0.3750
vt 0.3750 -0.0000 0.3750
vt -0.0000 0.3750 0.3750
vt 0.5000 -0.3333 -0.0000
vt -0.0000 -0.5000 -0.0000
vt 0.3750 0.0000 -0.3750
vt -0.3333 -0.0000 0.5000
vt 0.0000 -0.3750 0.3750
vt -0.0000 0.3333 -0.5000
vt -0.3750 0.0000 -0.3750
vt 0.3333 -0.5000 -0.0000
vt 0.0000 -0.3750 -0.3750
vt -0.5000 -0.3333 0.0000
vt -0.3333 0.0000 -0.5000

o head
g head
usemtl wire_154154229
s off
f 1/1/1 2/2/1 3/3/1 
f 1/4/2 3/5/2 4/6/2 
f 1/1/3 4/7/3 2/2/3 
f 5/8/4 4/6/4 6/9/4 
f 5/8/5 6/9/5 7/10/5 
f 5/11/6 7/12/6 4/7/6 
f 8/13/7 7/10/7 9/14/7 
f 8/15/8 9/16/8 2/2/8 
f 8/15/9 2/2/9 7/12/9 
f 10/17/10 9/14/10 6/9/10 
f 10/17/11 6/9/11 3/5/11 
f 10/18/12 3/3/12 9/16/12 
f 4/7/13 7/12/13 2/2/13 
f 9/16/14 3/3/14 2/2/14 
f 3/5/15 6/9/15 4/6/15 
f 9/14/16 7/10/16 6/9/16 

v  0.6976 -2.3906 0.1505
v  -4.4531 -2.3906 0.1505
v  -1.8777 0.1094 -5.4675
v  0.6976 2.6094 0.1505
v  -4.4531 2.6094 0.1505
v  -1.8777 0.1094 0.1505

vn 0.0000 -0.9136 -0.4066
vn 0.9090 0.0000 -0.4167
vn 0.0000 0.9136 -0.4066
vn -0.9090 0.0000 -0.4167
vn 0.0000 -0.0000 1.0000

vt 1.0000 -0.0000 0.0000
vt 0.0000 -0.0000 0.0000
vt 0.5000 1.0000 0.0000
vt 1.0000 1.0000 0.0000
vt 0.5000 0.5000 0.0000
vt 0.0000 1.0000 0.0000
vt 1.0000 0.0000 0.0000
vt 0.0000 0.0000 0.0000

o engine1
g engine1
usemtl wire_007007027
s 4
f 11/19/17 12/20/17 13/21/17 
s 2
f 14/19/18 11/20/18 13/21/18 
s 16
f 15/19/19 14/20/19 13/21/19 
s 32
f 12/19/20 15/20/20 13/21/20 
s 8
f 11/22/21 16/23/21 12/24/21 
f 14/25/21 16/23/21 11/22/21 
f 15/26/21 16/23/21 14/25/21 
f 12/24/21 16/23/21 15/26/21 

v  28.1630 -2.3906 0.2593
v  23.0123 -2.3906 0.2593
v  25.5877 0.1094 -5.3586
v  28.1630 2.6094 0.2593
v  23.0123 2.6094 0.2593
v  25.5877 0.1094 0.2593

vn 0.0000 -0.9136 -0.4066
vn 0.9090 0.0000 -0.4167
vn 0.0000 0.9136 -0.4066
vn -0.9090 0.0000 -0.4167
vn 0.0000 -0.0000 1.0000

vt 1.0000 -0.0000 0.0000
vt 0.0000 -0.0000 0.0000
vt 0.5000 1.0000 0.0000
vt 1.0000 1.0000 0.0000
vt 0.5000 0.5000 0.0000
vt 0.0000 1.0000 0.0000
vt 1.0000 0.0000 0.0000
vt 0.0000 0.0000 0.0000

o engine2
g engine2
usemtl wire_007007027
s 4
f 17/27/22 18/28/22 19/29/22 
s 2
f 20/27/23 17/28/23 19/29/23 
s 16
f 21/27/24 20/28/24 19/29/24 
s 32
f 18/27/25 21/28/25 19/29/25 
s 8
f 17/30/26 22/31/26 18/32/26 
f 20/33/26 22/31/26 17/30/26 
f 21/34/26 22/31/26 20/33/26 
f 18/32/26 22/31/26 21/34/26 

v  24.7777 -1.2615 -20.7269
v  17.3848 -1.2615 -24.3869
v  24.9282 2.1837 -20.7269
v  17.5634 2.8280 -24.3869
v  30.7682 -1.2615 -17.8894
v  30.8958 1.6616 -17.8894
v  35.5900 -1.2615 -15.7373
v  35.6992 1.2413 -15.7373
v  39.4768 -1.2615 -14.1336
v  39.5712 0.9026 -14.1336
v  42.6623 -1.2615 -12.9411
v  42.7447 0.6249 -12.9411
v  45.3805 -1.2615 -12.0227
v  45.4525 0.3880 -12.0227
v  47.8648 -1.2615 -11.2415
v  47.9274 0.1715 -11.2415
v  48.9956 -1.2615 -10.8311
v  49.0539 0.0730 -10.8311
v  50.1321 -1.2615 -10.3727
v  50.1860 -0.0261 -10.3727
v  51.2799 -1.2615 -9.8182
v  51.3295 -0.1261 -9.8182
v  52.4448 -1.2615 -9.1197
v  52.4900 -0.2277 -9.1197
v  53.6325 -1.2615 -8.2292
v  53.6731 -0.3312 -8.2292
v  54.8486 -1.2615 -7.0986
v  54.8846 -0.4372 -7.0986
v  56.0988 -1.2615 -5.6800
v  56.1300 -0.5461 -5.6800
v  57.2352 -1.2615 -4.2150
v  57.2621 -0.6452 -4.2150
v  58.1329 -1.2615 -2.9547
v  58.1564 -0.7234 -2.9547
v  58.8316 -1.2615 -1.8650
v  58.8524 -0.7843 -1.8650
v  59.3711 -1.2615 -0.9117
v  59.3899 -0.8313 -0.9117
v  59.7912 -1.2615 -0.0608
v  59.8084 -0.8679 -0.0608
v  60.1317 -1.2615 0.7219
v  60.1476 -0.8976 0.7219
v  60.4324 -1.2615 1.4705
v  60.4471 -0.9238 1.4705
v  58.8927 -1.2615 0.4513
v  58.9133 -0.7896 0.4513
v  57.2152 -1.2615 -0.5539
v  57.2422 -0.6434 -0.5539
v  55.2623 -1.2615 -1.5314
v  55.2968 -0.4732 -1.5314
v  52.8963 -1.2615 -2.4672
v  52.9397 -0.2670 -2.4672
v  49.9794 -1.2615 -3.3474
v  50.0340 -0.0128 -3.3474
v  46.3740 -1.2615 -4.1582
v  46.4422 0.3015 -4.1582
v  41.9422 -1.2615 -4.8855
v  42.0273 0.6877 -4.8855
v  24.6076 -1.2615 -7.1245
v  24.7587 2.1985 -7.1245

vn 0.3045 -0.7157 -0.6285
vn -0.5898 -0.5342 -0.6056
vn 0.3658 0.6865 -0.6285
vn -0.5410 0.5836 -0.6056
vn 0.2919 -0.7161 -0.6341
vn 0.3532 0.6879 -0.6341
vn 0.2755 -0.7164 -0.6410
vn 0.3369 0.6896 -0.6410
vn 0.2556 -0.7165 -0.6491
vn 0.3171 0.6915 -0.6491
vn 0.2344 -0.7159 -0.6577
vn 0.2959 0.6927 -0.6577
vn 0.2172 -0.7143 -0.6653
vn 0.2786 0.6926 -0.6653
vn 0.2263 -0.7072 -0.6698
vn 0.2871 0.6848 -0.6698
vn 0.2521 -0.7087 -0.6590
vn 0.3129 0.6840 -0.6590
vn 0.2861 -0.7060 -0.6479
vn 0.3465 0.6783 -0.6479
vn 0.3365 -0.7045 -0.6249
vn 0.3966 0.6725 -0.6249
vn 0.3953 -0.7043 -0.5896
vn 0.4552 0.6672 -0.5896
vn 0.4539 -0.7054 -0.5444
vn 0.5137 0.6631 -0.5444
vn 0.5061 -0.7072 -0.4937
vn 0.5658 0.6604 -0.4937
vn 0.5408 -0.7120 -0.4478
vn 0.6008 0.6622 -0.4478
vn 0.5610 -0.7149 -0.4174
vn 0.6212 0.6633 -0.4174
vn 0.5795 -0.7144 -0.3921
vn 0.6396 0.6612 -0.3921
vn 0.5993 -0.7142 -0.3617
vn 0.6593 0.6592 -0.3617
vn 0.6183 -0.7144 -0.3275
vn 0.6782 0.6578 -0.3275
vn 0.6335 -0.7157 -0.2942
vn 0.6934 0.6577 -0.2942
vn 0.6420 -0.7181 -0.2686
vn 0.7022 0.6594 -0.2686
vn 0.5130 -0.5525 0.6570
vn 0.5592 0.5057 0.6570
vn -0.3783 -0.7040 0.6011
vn -0.3155 0.7343 0.6011
vn -0.3391 -0.7084 0.6191
vn -0.2760 0.7352 0.6191
vn -0.2863 -0.7109 0.6424
vn -0.2233 0.7331 0.6424
vn -0.2302 -0.7116 0.6638
vn -0.1673 0.7290 0.6638
vn -0.1781 -0.7114 0.6798
vn -0.1154 0.7242 0.6798
vn -0.1336 -0.7108 0.6905
vn -0.0711 0.7198 0.6905
vn -0.1020 -0.7088 0.6980
vn -0.0398 0.7149 0.6980
vn -0.4920 -0.6000 0.6308
vn -0.4379 0.6406 0.6308

o wing1
g wing1
usemtl wire_154154229
s 2147483648
f 23//27 24//28 25//29 
f 25//29 24//28 26//30 
f 27//31 23//27 28//32 
f 28//32 23//27 25//29 
f 29//33 27//31 30//34 
f 30//34 27//31 28//32 
f 31//35 29//33 32//36 
f 32//36 29//33 30//34 
f 33//37 31//35 34//38 
f 34//38 31//35 32//36 
f 35//39 33//37 36//40 
f 36//40 33//37 34//38 
f 37//41 35//39 38//42 
f 38//42 35//39 36//40 
f 39//43 37//41 40//44 
f 40//44 37//41 38//42 
f 41//45 39//43 42//46 
f 42//46 39//43 40//44 
f 43//47 41//45 44//48 
f 44//48 41//45 42//46 
f 45//49 43//47 46//50 
f 46//50 43//47 44//48 
f 47//51 45//49 48//52 
f 48//52 45//49 46//50 
f 49//53 47//51 50//54 
f 50//54 47//51 48//52 
f 51//55 49//53 52//56 
f 52//56 49//53 50//54 
f 53//57 51//55 54//58 
f 54//58 51//55 52//56 
f 55//59 53//57 56//60 
f 56//60 53//57 54//58 
f 57//61 55//59 58//62 
f 58//62 55//59 56//60 
f 59//63 57//61 60//64 
f 60//64 57//61 58//62 
f 61//65 59//63 62//66 
f 62//66 59//63 60//64 
f 63//67 61//65 64//68 
f 64//68 61//65 62//66 
f 65//69 63//67 66//70 
f 66//70 63//67 64//68 
f 67//71 65//69 68//72 
f 68//72 65//69 66//70 
f 69//73 67//71 70//74 
f 70//74 67//71 68//72 
f 71//75 69//73 72//76 
f 72//76 69//73 70//74 
f 73//77 71//75 74//78 
f 74//78 71//75 72//76 
f 75//79 73//77 76//80 
f 76//80 73//77 74//78 
f 77//81 75//79 78//82 
f 78//82 75//79 76//80 
f 79//83 77//81 80//84 
f 80//84 77//81 78//82 
f 81//85 79//83 82//86 
f 82//86 79//83 80//84 
f 24//28 81//85 26//30 
f 26//30 81//85 82//86 
f 67//71 63//67 65//69 
f 23//27 81//85 24//28 
f 67//71 61//65 63//67 
f 27//31 81//85 23//27 
f 27//31 79//83 81//85 
f 29//33 79//83 27//31 
f 31//35 79//83 29//33 
f 33//37 79//83 31//35 
f 35//39 79//83 33//37 
f 35//39 77//81 79//83 
f 37//41 77//81 35//39 
f 39//43 77//81 37//41 
f 39//43 75//79 77//81 
f 41//45 75//79 39//43 
f 43//47 75//79 41//45 
f 45//49 75//79 43//47 
f 47//51 75//79 45//49 
f 47//51 73//77 75//79 
f 49//53 73//77 47//51 
f 51//55 73//77 49//53 
f 51//55 71//75 73//77 
f 53//57 71//75 51//55 
f 55//59 71//75 53//57 
f 55//59 69//73 71//75 
f 57//61 69//73 55//59 
f 57//61 67//71 69//73 
f 59//63 67//71 57//61 
f 59//63 61//65 67//71 
f 66//70 64//68 68//72 
f 26//30 82//86 25//29 
f 64//68 62//66 68//72 
f 25//29 82//86 28//32 
f 82//86 80//84 28//32 
f 28//32 80//84 30//34 
f 30//34 80//84 32//36 
f 32//36 80//84 34//38 
f 34//38 80//84 36//40 
f 80//84 78//82 36//40 
f 36//40 78//82 38//42 
f 38//42 78//82 40//44 
f 78//82 76//80 40//44 
f 40//44 76//80 42//46 
f 42//46 76//80 44//48 
f 44//48 76//80 46//50 
f 46//50 76//80 48//52 
f 76//80 74//78 48//52 
f 48//52 74//78 50//54 
f 50//54 74//78 52//56 
f 74//78 72//76 52//56 
f 52//56 72//76 54//58 
f 54//58 72//76 56//60 
f 72//76 70//74 56//60 
f 56//60 70//74 58//62 
f 70//74 68//72 58//62 
f 58//62 68//72 60//64 
f 68//72 62//66 60//64 

v  6.2721 -1.2615 -24.4261
v  -1.1208 -1.2615 -20.7661
v  -1.2712 2.1837 -20.7661
v  6.0936 2.8280 -24.4261
v  -7.1112 -1.2615 -17.9286
v  -7.2389 1.6616 -17.9286
v  -11.9330 -1.2615 -15.7765
v  -12.0423 1.2413 -15.7765
v  -15.8198 -1.2615 -14.1728
v  -15.9143 0.9026 -14.1728
v  -19.0054 -1.2615 -12.9803
v  -19.0878 0.6249 -12.9803
v  -21.7235 -1.2615 -12.0620
v  -21.7955 0.3880 -12.0620
v  -24.2079 -1.2615 -11.2807
v  -24.2704 0.1715 -11.2807
v  -25.3387 -1.2615 -10.8703
v  -25.3969 0.0730 -10.8703
v  -26.4751 -1.2615 -10.4119
v  -26.5291 -0.0261 -10.4119
v  -27.6230 -1.2615 -9.8574
v  -27.6726 -0.1261 -9.8574
v  -28.7879 -1.2615 -9.1590
v  -28.8330 -0.2277 -9.1590
v  -29.9755 -1.2615 -8.2684
v  -30.0162 -0.3312 -8.2684
v  -31.1916 -1.2615 -7.1379
v  -31.2276 -0.4372 -7.1379
v  -32.4418 -1.2615 -5.7192
v  -32.4730 -0.5461 -5.7192
v  -33.5783 -1.2615 -4.2542
v  -33.6052 -0.6452 -4.2542
v  -34.4760 -1.2615 -2.9939
v  -34.4995 -0.7234 -2.9939
v  -35.1746 -1.2615 -1.9042
v  -35.1955 -0.7843 -1.9042
v  -35.7141 -1.2615 -0.9509
v  -35.7329 -0.8313 -0.9509
v  -36.1342 -1.2615 -0.1000
v  -36.1514 -0.8679 -0.1000
v  -36.4747 -1.2615 0.6827
v  -36.4906 -0.8976 0.6827
v  -36.7754 -1.2615 1.4313
v  -36.7902 -0.9238 1.4313
v  -35.2357 -1.2615 0.4121
v  -35.2563 -0.7896 0.4121
v  -33.5583 -1.2615 -0.5932
v  -33.5853 -0.6434 -0.5932
v  -31.6054 -1.2615 -1.5707
v  -31.6398 -0.4732 -1.5707
v  -29.2394 -1.2615 -2.5065
v  -29.2828 -0.2670 -2.5065
v  -26.3225 -1.2615 -3.3867
v  -26.3770 -0.0128 -3.3867
v  -22.7170 -1.2615 -4.1974
v  -22.7852 0.3015 -4.1974
v  -18.2852 -1.2615 -4.9247
v  -18.3703 0.6877 -4.9247
v  -0.9506 -1.2615 -7.1638
v  -1.1017 2.1985 -7.1638

vn 0.5898 -0.5342 -0.6056
vn -0.3045 -0.7157 -0.6285
vn -0.3658 0.6865 -0.6285
vn 0.5410 0.5836 -0.6056
vn -0.2919 -0.7161 -0.6341
vn -0.3532 0.6879 -0.6341
vn -0.2755 -0.7164 -0.6410
vn -0.3369 0.6896 -0.6410
vn -0.2556 -0.7165 -0.6491
vn -0.3171 0.6915 -0.6491
vn -0.2344 -0.7159 -0.6577
vn -0.2959 0.6927 -0.6577
vn -0.2172 -0.7143 -0.6653
vn -0.2786 0.6926 -0.6653
vn -0.2263 -0.7072 -0.6698
vn -0.2871 0.6848 -0.6698
vn -0.2521 -0.7087 -0.6590
vn -0.3129 0.6840 -0.6590
vn -0.2861 -0.7060 -0.6479
vn -0.3465 0.6783 -0.6479
vn -0.3365 -0.7045 -0.6249
vn -0.3966 0.6725 -0.6249
vn -0.3953 -0.7043 -0.5896
vn -0.4552 0.6672 -0.5896
vn -0.4539 -0.7054 -0.5444
vn -0.5137 0.6631 -0.5444
vn -0.5061 -0.7072 -0.4937
vn -0.5658 0.6604 -0.4937
vn -0.5408 -0.7120 -0.4478
vn -0.6008 0.6622 -0.4478
vn -0.5610 -0.7149 -0.4174
vn -0.6212 0.6633 -0.4174
vn -0.5795 -0.7144 -0.3921
vn -0.6396 0.6612 -0.3921
vn -0.5993 -0.7142 -0.3617
vn -0.6593 0.6592 -0.3617
vn -0.6183 -0.7144 -0.3275
vn -0.6782 0.6578 -0.3275
vn -0.6335 -0.7157 -0.2942
vn -0.6934 0.6577 -0.2942
vn -0.6420 -0.7181 -0.2686
vn -0.7022 0.6594 -0.2686
vn -0.5130 -0.5525 0.6570
vn -0.5592 0.5057 0.6570
vn 0.3783 -0.7040 0.6011
vn 0.3155 0.7343 0.6011
vn 0.3391 -0.7084 0.6191
vn 0.2760 0.7352 0.6191
vn 0.2863 -0.7109 0.6424
vn 0.2233 0.7331 0.6424
vn 0.2302 -0.7116 0.6638
vn 0.1673 0.7290 0.6638
vn 0.1781 -0.7114 0.6798
vn 0.1154 0.7242 0.6798
vn 0.1336 -0.7108 0.6905
vn 0.0711 0.7198 0.6905
vn 0.1020 -0.7088 0.6980
vn 0.0398 0.7149 0.6980
vn 0.4920 -0.6000 0.6308
vn 0.4379 0.6406 0.6308

o wing2
g wing2
usemtl wire_154154229
s 2147483648
f 83//87 84//88 85//89 
f 83//87 85//89 86//90 
f 84//88 87//91 88//92 
f 84//88 88//92 85//89 
f 87//91 89//93 90//94 
f 87//91 90//94 88//92 
f 89//93 91//95 92//96 
f 89//93 92//96 90//94 
f 91//95 93//97 94//98 
f 91//95 94//98 92//96 
f 93//97 95//99 96//100 
f 93//97 96//100 94//98 
f 95//99 97//101 98//102 
f 95//99 98//102 96//100 
f 97//101 99//103 100//104 
f 97//101 100//104 98//102 
f 99//103 101//105 102//106 
f 99//103 102//106 100//104 
f 101//105 103//107 104//108 
f 101//105 104//108 102//106 
f 103//107 105//109 106//110 
f 103//107 106//110 104//108 
f 105//109 107//111 108//112 
f 105//109 108//112 106//110 
f 107//111 109//113 110//114 
f 107//111 110//114 108//112 
f 109//113 111//115 112//116 
f 109//113 112//116 110//114 
f 111//115 113//117 114//118 
f 111//115 114//118 112//116 
f 113//117 115//119 116//120 
f 113//117 116//120 114//118 
f 115//119 117//121 118//122 
f 115//119 118//122 116//120 
f 117//121 119//123 120//124 
f 117//121 120//124 118//122 
f 119//123 121//125 122//126 
f 119//123 122//126 120//124 
f 121//125 123//127 124//128 
f 121//125 124//128 122//126 
f 123//127 125//129 126//130 
f 123//127 126//130 124//128 
f 125//129 127//131 128//132 
f 125//129 128//132 126//130 
f 127//131 129//133 130//134 
f 127//131 130//134 128//132 
f 129//133 131//135 132//136 
f 129//133 132//136 130//134 
f 131//135 133//137 134//138 
f 131//135 134//138 132//136 
f 133//137 135//139 136//140 
f 133//137 136//140 134//138 
f 135//139 137//141 138//142 
f 135//139 138//142 136//140 
f 137//141 139//143 140//144 
f 137//141 140//144 138//142 
f 139//143 141//145 142//146 
f 139//143 142//146 140//144 
f 141//145 83//87 86//90 
f 141//145 86//90 142//146 
f 123//127 127//131 125//129 
f 141//145 84//88 83//87 
f 121//125 127//131 123//127 
f 141//145 87//91 84//88 
f 139//143 87//91 141//145 
f 139//143 89//93 87//91 
f 139//143 91//95 89//93 
f 139//143 93//97 91//95 
f 139//143 95//99 93//97 
f 137//141 95//99 139//143 
f 137//141 97//101 95//99 
f 137//141 99//103 97//101 
f 135//139 99//103 137//141 
f 135//139 101//105 99//103 
f 135//139 103//107 101//105 
f 135//139 105//109 103//107 
f 135//139 107//111 105//109 
f 133//137 107//111 135//139 
f 133//137 109//113 107//111 
f 133//137 111//115 109//113 
f 131//135 111//115 133//137 
f 131//135 113//117 111//115 
f 131//135 115//119 113//117 
f 129//133 115//119 131//135 
f 129//133 117//121 115//119 
f 127//131 117//121 129//133 
f 127//131 119//123 117//121 
f 121//125 119//123 127//131 
f 124//128 126//130 128//132 
f 142//146 86//90 85//89 
f 122//126 124//128 128//132 
f 142//146 85//89 88//92 
f 140//144 142//146 88//92 
f 140//144 88//92 90//94 
f 140//144 90//94 92//96 
f 140//144 92//96 94//98 
f 140//144 94//98 96//100 
f 138//142 140//144 96//100 
f 138//142 96//100 98//102 
f 138//142 98//102 100//104 
f 136//140 138//142 100//104 
f 136//140 100//104 102//106 
f 136//140 102//106 104//108 
f 136//140 104//108 106//110 
f 136//140 106//110 108//112 
f 134//138 136//140 108//112 
f 134//138 108//112 110//114 
f 134//138 110//114 112//116 
f 132//136 134//138 112//116 
f 132//136 112//116 114//118 
f 132//136 114//118 116//120 
f 130//134 132//136 116//120 
f 130//134 116//120 118//122 
f 128//132 130//134 118//122 
f 128//132 118//122 120//124 
f 122//126 128//132 120//124 

